<?xml version="1.0" encoding="UTF-8" standalone="no"?>
<!-- Created with Inkscape (http://www.inkscape.org/) -->

<svg
   xmlns:dc="http://purl.org/dc/elements/1.1/"
   xmlns:cc="http://creativecommons.org/ns#"
   xmlns:rdf="http://www.w3.org/1999/02/22-rdf-syntax-ns#"
   xmlns:svg="http://www.w3.org/2000/svg"
   xmlns="http://www.w3.org/2000/svg"
   xmlns:sodipodi="http://sodipodi.sourceforge.net/DTD/sodipodi-0.dtd"
   xmlns:inkscape="http://www.inkscape.org/namespaces/inkscape"
   width="130"
   height="70"
   id="svg3010"
   version="1.1"
   inkscape:version="0.48.4 r9939"
   sodipodi:docname="my_logo_fk.svg">
  <defs
     id="defs3012" />
  <sodipodi:namedview
     id="base"
     pagecolor="#ffffff"
     bordercolor="#666666"
     borderopacity="1.0"
     inkscape:pageopacity="0.0"
     inkscape:pageshadow="2"
     inkscape:zoom="4.2426407"
     inkscape:cx="185.78682"
     inkscape:cy="55.255508"
     inkscape:document-units="px"
     inkscape:current-layer="layer1"
     showgrid="true"
     inkscape:window-width="1366"
     inkscape:window-height="716"
     inkscape:window-x="0"
     inkscape:window-y="0"
     inkscape:window-maximized="1"
     showguides="true"
     inkscape:guide-bbox="true">
    <inkscape:grid
       type="xygrid"
       id="grid3018"
       empspacing="10"
       visible="true"
       enabled="true"
       snapvisiblegridlinesonly="true" />
  </sodipodi:namedview>
  <metadata
     id="metadata3015">
    <rdf:RDF>
      <cc:Work
         rdf:about="">
        <dc:format>image/svg+xml</dc:format>
        <dc:type
           rdf:resource="http://purl.org/dc/dcmitype/StillImage" />
        <dc:title />
      </cc:Work>
    </rdf:RDF>
  </metadata>
  <g
     inkscape:label="Layer 1"
     inkscape:groupmode="layer"
     id="layer1"
     transform="translate(0,-982.36218)">
    <path
       style="fill:#158cc3;fill-opacity:1;stroke:none"
       d="m 10,46 0,14 50,0 0,0.09375 c 0,0 0,-14.09375 0,-14 C 43.546818,45.903606 26.62075,46 10,46 z m 19,4.9375 10,0 0,4 -10,0 z M 15.59375,51 l 10,0 0,4 -10,0 z M 42.5,51.03125 l 10,0 0,4 -10,0 z"
       transform="translate(0,982.36218)"
       id="path3807"
       inkscape:connector-curvature="0"
       sodipodi:nodetypes="ccccccccccccccccccccc" />
    <path
       style="fill:#158cc3;fill-opacity:1;stroke:none"
       d="m 10,1026.3622 50,0 0,-2 -16,0 -9,-7 -11,6 -4,-6 z"
       id="path4356"
       inkscape:connector-curvature="0"
       sodipodi:nodetypes="cccccccc" />
    <path
       style="fill:#158cc3;fill-opacity:1;stroke:none"
       d="m 50.772205,1024.1728 7,0 -2,-13 -3,0 z"
       id="path4358"
       inkscape:connector-curvature="0"
       sodipodi:nodetypes="ccccc" />
    <path
       style="fill:#158cc3;fill-opacity:1;stroke:none"
       d="m 69.518393,1000.71 c 0,0 -2.621816,3.0923 -7.950586,4.4221 -4.296181,1.0721 -5.898776,5.6309 -5.898776,5.6309 0,0 4.092853,-2.5066 8.976521,-3.8176 4.737833,-1.272 4.872841,-6.2354 4.872841,-6.2354 z"
       id="path4362"
       inkscape:connector-curvature="0"
       sodipodi:nodetypes="cscsc" />
    <g
       id="g4399"
       transform="translate(-8.8388348,-0.25253814)">
      <path
         transform="matrix(0.65534511,0,0,0.80415464,17.560024,986.31674)"
         d="m 95,32 a 4,3 0 1 1 -8,0 4,3 0 1 1 8,0 z"
         sodipodi:ry="3"
         sodipodi:rx="4"
         sodipodi:cy="32"
         sodipodi:cx="91"
         id="path4372"
         style="fill:#158cc3;fill-opacity:1;stroke:none"
         sodipodi:type="arc" />
      <g
         transform="translate(2,0)"
         id="g4393">
        <path
           style="fill:none;stroke:#158cc3;stroke-width:3;stroke-linecap:butt;stroke-linejoin:miter;stroke-miterlimit:4;stroke-opacity:1;stroke-dasharray:none"
           d="m 75.838835,1017.6147 2,5 L 83,1025.3622"
           id="path4374"
           inkscape:connector-curvature="0"
           sodipodi:nodetypes="ccc" />
        <path
           style="fill:none;stroke:#158cc3;stroke-width:3;stroke-linecap:butt;stroke-linejoin:miter;stroke-miterlimit:4;stroke-opacity:1;stroke-dasharray:none"
           d="m 77.838835,36.252538 -4,0 L 70,38 l 0,6"
           id="path4376"
           inkscape:connector-curvature="0"
           transform="translate(0,982.36218)"
           sodipodi:nodetypes="cccc" />
        <path
           style="fill:none;stroke:#158cc3;stroke-width:3;stroke-linecap:butt;stroke-linejoin:miter;stroke-miterlimit:4;stroke-opacity:1;stroke-dasharray:none"
           d="m 75,35 -0.161165,9.252538 6,7 1,9"
           id="path4378"
           inkscape:connector-curvature="0"
           transform="translate(0,982.36218)"
           sodipodi:nodetypes="cccc" />
        <path
           style="fill:none;stroke:#158cc3;stroke-width:3;stroke-linecap:butt;stroke-linejoin:miter;stroke-miterlimit:4;stroke-opacity:1;stroke-dasharray:none"
           d="m 74.838835,45.252538 -1,5 -6,9"
           id="path4380"
           inkscape:connector-curvature="0"
           transform="translate(0,982.36218)"
           sodipodi:nodetypes="ccc" />
      </g>
    </g>
    <path
       sodipodi:nodetypes="cscsc"
       inkscape:connector-curvature="0"
       id="path2994"
       d="m 86.845978,994.58173 c 0,0 -3.380367,3.98695 -10.250873,5.70157 -5.539164,1.3822 -7.605427,7.26 -7.605427,7.26 0,0 5.277009,-3.2318 11.573635,-4.9221 6.108597,-1.64 6.282665,-8.03947 6.282665,-8.03947 z"
       style="fill:#158cc3;fill-opacity:1;stroke:none" />
    <path
       style="fill:#158cc3;fill-opacity:1;stroke:none"
       d="m 106.6763,987.74636 c 0,0 -4.10023,4.836 -12.43384,6.91568 -6.718747,1.67664 -9.225028,8.80616 -9.225028,8.80616 0,0 6.400766,-3.92002 14.038279,-5.97038 7.409449,-1.98925 7.620589,-9.75146 7.620589,-9.75146 z"
       id="path2996"
       inkscape:connector-curvature="0"
       sodipodi:nodetypes="cscsc" />
    <g
       transform="matrix(1.116219,0,0,1.116219,1.367971,-121.83417)"
       id="g2998">
      <path
         sodipodi:type="arc"
         style="fill:#158cc3;fill-opacity:1;stroke:none"
         id="path3000"
         sodipodi:cx="91"
         sodipodi:cy="32"
         sodipodi:rx="4"
         sodipodi:ry="3"
         d="m 95,32 c 0,1.656854 -1.790861,3 -4,3 -2.209139,0 -4,-1.343146 -4,-3 0,-1.656854 1.790861,-3 4,-3 2.209139,0 4,1.343146 4,3 z"
         transform="matrix(0.65534511,0,0,0.80415464,17.560024,986.31674)" />
      <g
         id="g3002"
         transform="translate(2,0)">
        <path
           sodipodi:nodetypes="ccc"
           inkscape:connector-curvature="0"
           id="path3004"
           d="m 75.838835,1017.6147 2,5 L 83,1025.3622"
           style="fill:none;stroke:#158cc3;stroke-width:3;stroke-linecap:butt;stroke-linejoin:miter;stroke-miterlimit:4;stroke-opacity:1;stroke-dasharray:none" />
        <path
           sodipodi:nodetypes="cccc"
           transform="translate(0,982.36218)"
           inkscape:connector-curvature="0"
           id="path3006"
           d="m 77.838835,36.252538 -4,0 L 70,38 l 0,6"
           style="fill:none;stroke:#158cc3;stroke-width:3;stroke-linecap:butt;stroke-linejoin:miter;stroke-miterlimit:4;stroke-opacity:1;stroke-dasharray:none" />
        <path
           sodipodi:nodetypes="cccc"
           transform="translate(0,982.36218)"
           inkscape:connector-curvature="0"
           id="path3008"
           d="m 75,35 -0.161165,9.252538 6,7 1,9"
           style="fill:none;stroke:#158cc3;stroke-width:3;stroke-linecap:butt;stroke-linejoin:miter;stroke-miterlimit:4;stroke-opacity:1;stroke-dasharray:none" />
        <path
           sodipodi:nodetypes="ccc"
           transform="translate(0,982.36218)"
           inkscape:connector-curvature="0"
           id="path3010"
           d="m 74.838835,45.252538 -1,5 -6,9"
           style="fill:none;stroke:#158cc3;stroke-width:3;stroke-linecap:butt;stroke-linejoin:miter;stroke-miterlimit:4;stroke-opacity:1;stroke-dasharray:none" />
      </g>
    </g>
    <g
       id="g3012"
       transform="matrix(1.3836416,0,0,1.3836416,2.7772351,-400.81827)">
      <path
         transform="matrix(0.65534511,0,0,0.80415464,17.560024,986.31674)"
         d="m 95,32 c 0,1.656854 -1.790861,3 -4,3 -2.209139,0 -4,-1.343146 -4,-3 0,-1.656854 1.790861,-3 4,-3 2.209139,0 4,1.343146 4,3 z"
         sodipodi:ry="3"
         sodipodi:rx="4"
         sodipodi:cy="32"
         sodipodi:cx="91"
         id="path3014"
         style="fill:#158cc3;fill-opacity:1;stroke:none"
         sodipodi:type="arc" />
      <g
         transform="translate(2,0)"
         id="g3016">
        <path
           style="fill:none;stroke:#158cc3;stroke-width:3;stroke-linecap:butt;stroke-linejoin:miter;stroke-miterlimit:4;stroke-opacity:1;stroke-dasharray:none"
           d="m 75.838835,1017.6147 2,5 L 83,1025.3622"
           id="path3018"
           inkscape:connector-curvature="0"
           sodipodi:nodetypes="ccc" />
        <path
           style="fill:none;stroke:#158cc3;stroke-width:3;stroke-linecap:butt;stroke-linejoin:miter;stroke-miterlimit:4;stroke-opacity:1;stroke-dasharray:none"
           d="m 77.838835,36.252538 -4,0 L 70,38 l 0,6"
           id="path3020"
           inkscape:connector-curvature="0"
           transform="translate(0,982.36218)"
           sodipodi:nodetypes="cccc" />
        <path
           style="fill:none;stroke:#158cc3;stroke-width:3;stroke-linecap:butt;stroke-linejoin:miter;stroke-miterlimit:4;stroke-opacity:1;stroke-dasharray:none"
           d="m 75,35 -0.161165,9.252538 6,7 1,9"
           id="path3022"
           inkscape:connector-curvature="0"
           transform="translate(0,982.36218)"
           sodipodi:nodetypes="cccc" />
        <path
           style="fill:none;stroke:#158cc3;stroke-width:3;stroke-linecap:butt;stroke-linejoin:miter;stroke-miterlimit:4;stroke-opacity:1;stroke-dasharray:none"
           d="m 74.838835,45.252538 -1,5 -6,9"
           id="path3024"
           inkscape:connector-curvature="0"
           transform="translate(0,982.36218)"
           sodipodi:nodetypes="ccc" />
      </g>
    </g>
  </g>
</svg>
